<?xml version="1.0" standalone="no"?>
<!DOCTYPE svg PUBLIC "-//W3C//DTD SVG 20010904//EN"
 "http://www.w3.org/TR/2001/REC-SVG-20010904/DTD/svg10.dtd">
<svg version="1.0" xmlns="http://www.w3.org/2000/svg"
 width="68.000000pt" height="102.000000pt" viewBox="0 0 68.000000 102.000000"
 preserveAspectRatio="xMidYMid meet">

<g transform="translate(0.000000,102.000000) scale(0.100000,-0.100000)"
fill="#000000" stroke="none">
<path d="M273 940 c-13 -5 -23 -14 -23 -19 0 -5 -24 -22 -52 -38 -92 -49 -109
-125 -39 -166 28 -16 28 -16 23 8 -4 24 30 85 49 85 5 0 9 -124 9 -306 l0
-307 -41 7 c-38 6 -40 5 -37 -16 2 -15 15 -28 36 -37 23 -11 32 -21 32 -39 0
-21 3 -23 28 -17 15 3 40 13 56 21 16 8 46 14 66 14 86 0 180 55 211 124 41
90 14 192 -58 226 -18 8 -33 17 -33 20 0 3 21 16 47 30 61 32 110 96 119 156
20 132 -74 220 -248 231 -54 4 -86 11 -91 19 -9 16 -22 17 -54 4z m215 -129
c60 -31 76 -60 73 -135 -2 -43 -92 -128 -160 -151 -82 -27 -81 -28 -81 148 0
85 3 157 8 161 13 14 117 -1 160 -23z m-79 -352 c127 -27 149 -161 40 -241
-27 -20 -97 -40 -111 -32 -4 3 -8 68 -8 145 0 156 -6 146 79 128z"/>
</g>
</svg>
